<svg width="14" height="24" viewBox="0 0 14 24" fill="none" xmlns="http://www.w3.org/2000/svg">
<path d="M7.39906 10.6605V10H6.57371V10.668C3.46858 10.9572 1 14.232 1 18.2356C1 18.4936 1.01009 18.7483 1.03028 18.9999H2.11765C2.10746 18.8159 2.10074 18.6304 2.10074 18.4428C2.10074 14.8113 4.04521 11.8308 6.52614 11.5119L6.32036 17.7731H7.52377L7.41895 11.5132C9.89462 11.8395 11.8336 14.8168 11.8336 18.443C11.8336 18.6305 11.8269 18.816 11.8167 19H12.9699C12.9898 18.7487 12.9998 18.4939 13 18.2357C12.9999 14.2117 10.5267 10.9206 7.39906 10.6605Z" fill="#ED008C"/>
</svg>
